<svg width="44" height="43" viewBox="0 0 44 43" fill="none" xmlns="http://www.w3.org/2000/svg">
<path fill-rule="evenodd" clip-rule="evenodd" d="M9.60286 9.12671L8.66236 9.26109L7.48193 10.5914V20.0924C7.48193 33.2242 20.3547 39.6574 20.9047 39.9261L21.3942 40.1653H22.6255L23.1151 39.9261C23.6651 39.6574 36.5378 33.2242 36.5378 20.0924V10.5914L35.3574 9.26109L34.4169 9.12671C30.435 8.5528 26.7396 6.76675 23.8562 4.0225L23.5282 3.66735L23.0373 3.12891H20.9824L20.4914 3.66735L20.1636 4.0225C17.28 6.76675 13.5847 8.5528 9.60286 9.12671ZM24.868 20.8281L21.0277 17.0751L22.9723 15.1747L30.1816 22.2202L22.9722 29.265L21.0278 27.3646L24.9667 23.5156H4.125V20.8281H24.868Z" fill="#F6821F"/>
</svg>
