<svg width="44" height="43" viewBox="0 0 44 43" fill="none" xmlns="http://www.w3.org/2000/svg">
<path fill-rule="evenodd" clip-rule="evenodd" d="M30.251 8.73438C30.251 6.13691 32.4057 4.03125 35.0635 4.03125C37.7214 4.03125 39.876 6.13691 39.876 8.73438C39.876 10.8649 38.4264 12.6646 36.4385 13.2427V15.4531C36.4385 19.1638 33.3605 22.1719 29.5635 22.1719H15.8135C13.5354 22.1719 11.6885 23.9767 11.6885 26.2031V29.7573C13.6764 30.3354 15.126 32.1351 15.126 34.2656C15.126 36.8631 12.9714 38.9688 10.3135 38.9688C7.65566 38.9688 5.50101 36.8631 5.50101 34.2656C5.50101 32.1351 6.95063 30.3354 8.93853 29.7573V13.2427C6.95063 12.6646 5.50101 10.8649 5.50101 8.73438C5.50101 6.13691 7.65566 4.03125 10.3135 4.03125C12.9714 4.03125 15.126 6.13691 15.126 8.73438C15.126 10.8649 13.6764 12.6646 11.6885 13.2427V20.8277C12.8376 19.9842 14.2658 19.4844 15.8135 19.4844H29.5635C31.8417 19.4844 33.6885 17.6795 33.6885 15.4531V13.2427C31.7006 12.6646 30.251 10.8649 30.251 8.73438Z" fill="#F6821F"/>
</svg>
