<svg width="44" height="43" viewBox="0 0 44 43" fill="none" xmlns="http://www.w3.org/2000/svg">
<path d="M22.33 3.99756H15.1181V6.68506H22.33V3.99756Z" fill="#F6821F"/>
<path d="M27.3969 7.57861H15.1181V10.2661H27.3969V7.57861Z" fill="#F6821F"/>
<path d="M38.5 11.1665H8.58685V13.854H38.5V11.1665Z" fill="#F6821F"/>
<path d="M33.8044 14.7476H21.9931V17.4351H33.8044V14.7476Z" fill="#F6821F"/>
<path d="M18.3356 14.7476H12.0244V17.4351H18.3356V14.7476Z" fill="#F6821F"/>
<path d="M30.5319 18.3286H14.7744V21.0161H30.5319V18.3286Z" fill="#F6821F"/>
<path d="M30.5319 21.9165H21.2575V24.604H30.5319V21.9165Z" fill="#F6821F"/>
<path d="M14.7744 21.9165H5.5V24.604H14.7744V21.9165Z" fill="#F6821F"/>
<path d="M24.3925 25.4976H5.5V28.1851H24.3925V25.4976Z" fill="#F6821F"/>
<path d="M33.8044 25.4976H28.6619V28.1851H33.8044V25.4976Z" fill="#F6821F"/>
<path d="M27.3969 29.0786H21.9381V31.7661H27.3969V29.0786Z" fill="#F6821F"/>
<path d="M18.0537 29.0786H12.595V31.7661H18.0537V29.0786Z" fill="#F6821F"/>
<path d="M24.3925 32.6665H9.23315V35.354H24.3925V32.6665Z" fill="#F6821F"/>
<path d="M24.3925 36.2476H14.465V38.9351H24.3925V36.2476Z" fill="#F6821F"/>
</svg>
