<svg width="44" height="43" viewBox="0 0 44 43" fill="none" xmlns="http://www.w3.org/2000/svg">
<path fill-rule="evenodd" clip-rule="evenodd" d="M23.3747 14.2111H37.1137L38.4887 15.5548V36.2317L37.1137 37.5755H6.88573L5.51074 36.2317V15.5548L6.88573 14.2111H20.6247V10.327C20.1005 10.0312 19.6908 9.57455 19.4591 9.02798C19.2274 8.48141 19.1868 7.87538 19.3434 7.30395C19.5001 6.73246 19.8454 6.22752 20.3257 5.86738C20.806 5.50722 21.3944 5.31201 21.9997 5.31201C22.6051 5.31201 23.1936 5.50722 23.6739 5.86738C24.1541 6.22752 24.4993 6.73246 24.656 7.30395C24.8127 7.87538 24.7721 8.48141 24.5404 9.02798C24.3088 9.57455 23.899 10.0312 23.3747 10.327V14.2111ZM17.8733 23.3345C17.8733 24.5694 16.851 25.5705 15.5901 25.5705C14.3291 25.5705 13.3069 24.5694 13.3069 23.3345C13.3069 22.0996 14.3291 21.0985 15.5901 21.0985C16.851 21.0985 17.8733 22.0996 17.8733 23.3345ZM28.4092 25.5705C29.6702 25.5705 30.6924 24.5694 30.6924 23.3345C30.6924 22.0996 29.6702 21.0985 28.4092 21.0985C27.1482 21.0985 26.126 22.0996 26.126 23.3345C26.126 24.5694 27.1482 25.5705 28.4092 25.5705ZM17.6534 28.4417H26.3469V31.1292H17.6534V28.4417Z" fill="#F6821F"/>
</svg>
