<svg width="44" height="43" viewBox="0 0 44 43" fill="none" xmlns="http://www.w3.org/2000/svg">
<g clip-path="url(#clip0_142_25)">
<mask id="mask0_142_25" style="mask-type:luminance" maskUnits="userSpaceOnUse" x="0" y="0" width="44" height="43">
<path d="M44 0H0V43H44V0Z" fill="white"/>
</mask>
<g mask="url(#mask0_142_25)">
<path d="M35.6579 17.5515C37.6609 17.4665 39.6236 18.1191 41.1579 19.3804C42.4249 20.4587 43.3262 21.8862 43.7423 23.4771C44.1582 25.0679 44.0692 26.7447 43.4869 28.2849C42.9047 29.8251 41.8567 31.1558 40.4823 32.1002C39.1079 33.0446 37.4721 33.5581 35.7919 33.5724C35.5653 33.5773 29.9802 33.5843 24.7226 33.5885L24.7233 23.89L28.1539 27.2977L30.1147 25.4131L23.3476 18.6924L16.5813 25.4131L18.542 27.2977L21.9733 23.89L21.9726 33.5904C20.4159 33.5913 18.9915 33.5919 17.875 33.5919V33.5744H9.77488C7.18431 33.5687 4.70152 32.5605 2.86965 30.7704C1.03779 28.9803 0.00599268 26.554 0 24.0223C0.0140713 22.6083 0.340835 21.2138 0.957894 19.9347C1.57495 18.6556 2.46772 17.522 3.575 16.6116C5.4291 15.0818 7.81763 14.3139 10.2389 14.469C11.3373 11.8273 13.2964 9.61345 15.8128 8.17026C18.3291 6.72707 21.2622 6.13523 24.1577 6.48636C27.0532 6.83746 29.7493 8.11201 31.8284 10.1125C33.9076 12.113 35.2536 14.7276 35.6579 17.5515Z" fill="#F6821F"/>
</g>
</g>
<defs>
<clipPath id="clip0_142_25">
<rect width="44" height="43" fill="white"/>
</clipPath>
</defs>
</svg>
