<svg width="44" height="43" viewBox="0 0 44 43" fill="none" xmlns="http://www.w3.org/2000/svg">
<path d="M20.1281 5.39004C21.1989 5.31732 22.2702 5.50923 23.2439 5.94684C21.2766 7.4859 20.0167 9.85258 20.0167 12.5068V13.5146H22.7667V12.5068C22.7667 10.4629 23.8654 8.66974 25.5171 7.66072C26.4856 7.16158 27.5526 6.86562 28.6496 6.7944C29.9608 6.70932 31.2728 6.94833 32.4648 7.48939C33.657 8.03045 34.6908 8.85619 35.4716 9.89047C36.179 10.8279 36.658 11.9093 36.8742 13.052C37.5729 13.4197 38.1868 13.9268 38.6752 14.5419C39.2409 15.2541 39.6216 16.0899 39.7848 16.9776C39.8923 17.5618 39.9035 18.157 39.8198 18.7409C38.5625 17.1498 36.5912 16.125 34.375 16.125H32.3125V18.8125H34.375C36.4191 18.8125 38.1159 20.2654 38.443 22.1722C38.4422 23.8563 37.8195 25.4837 36.6895 26.7539C35.7087 27.8565 34.403 28.6256 32.9605 28.9613L34.1355 38.1704L32.9378 38.7378L25.8202 31.7695C27.798 30.2309 29.0656 27.8578 29.0656 25.1953V24.8594H26.3156V25.1953C26.3156 27.1155 25.346 28.8143 23.8591 29.8496L23.8567 29.8473C22.4428 30.4878 20.8614 30.7023 19.3156 30.4568C18.7316 30.364 18.1641 30.2074 17.6228 29.9922C19.3031 28.4592 20.3538 26.2753 20.3538 23.8516V23.5156H17.6038V23.8516C17.6038 25.7534 16.6526 27.438 15.1897 28.4759C13.5418 29.2028 11.6819 29.3523 9.92619 28.8889C7.99913 28.3803 6.34298 27.1718 5.29466 25.51C4.24635 23.8481 3.8846 21.8576 4.28289 19.944C4.44241 19.1775 4.71906 18.4464 5.09809 17.7728C5.97597 19.2756 7.44391 20.4484 9.28929 20.9317L10.0011 18.3357C8.51098 17.9455 7.43112 16.8059 7.07218 15.4431C7.01931 15.1189 6.99222 14.7909 6.99133 14.462C6.9903 14.1154 7.01862 13.7705 7.07555 13.4306L7.08428 13.3985L7.08118 13.3977C7.1927 12.7533 7.40699 12.1276 7.71815 11.5444C8.19851 10.6438 8.8955 9.87112 9.7491 9.29284C10.6027 8.71462 11.5872 8.34825 12.6178 8.22543C13.4473 8.1266 14.2865 8.18794 15.0884 8.40381C15.5655 7.63028 16.2093 6.96472 16.9774 6.45501C17.9132 5.8341 19.0002 5.46663 20.1281 5.39004Z" fill="#F6821F"/>
</svg>
